<svg width="30" height="26" viewBox="0 0 30 26" fill="none" xmlns="http://www.w3.org/2000/svg">
<path d="M28.5938 0C28.9453 0 29.2969 0.15211 29.5898 0.354923C29.8242 0.608439 30 0.912658 30 1.21688C30 1.5718 29.8242 1.87602 29.5898 2.07883L18.75 11.4589V24.7432C18.75 25.2502 18.457 25.6558 17.9883 25.8587C17.4609 26.0615 16.9922 26.0615 16.5234 25.7572L11.8359 22.9179C11.4258 22.6643 11.25 22.3094 11.25 21.9038V11.4589L0.410156 2.07883C0.117188 1.87602 0 1.5718 0 1.21688C0 0.912658 0.117188 0.608439 0.410156 0.354923C0.644531 0.15211 0.996094 0 1.40625 0H28.5938Z" fill="#0D253C"/>
</svg>
