<svg width="33" height="32" viewBox="0 0 33 32" fill="none" xmlns="http://www.w3.org/2000/svg">
<g clip-path="url(#clip0_113_13)">
<rect width="32.52" height="32" fill="white"/>
<path d="M19.3085 14C19.9115 14 20.5009 13.8241 21.0023 13.4944C21.5037 13.1648 21.8944 12.6962 22.1252 12.1481C22.3559 11.5999 22.4163 10.9967 22.2987 10.4147C22.181 9.83279 21.8907 9.29824 21.4643 8.87868C21.0379 8.45912 20.4947 8.1734 19.9033 8.05765C19.3119 7.94189 18.6989 8.0013 18.1418 8.22836C17.5847 8.45543 17.1086 8.83994 16.7736 9.33329C16.4386 9.82664 16.2598 10.4067 16.2598 11C16.2598 11.7957 16.581 12.5587 17.1527 13.1213C17.7245 13.6839 18.4999 14 19.3085 14ZM19.3085 10C19.5095 10 19.706 10.0587 19.8731 10.1685C20.0402 10.2784 20.1705 10.4346 20.2474 10.6173C20.3243 10.8 20.3445 11.0011 20.3052 11.1951C20.266 11.3891 20.1692 11.5673 20.0271 11.7071C19.885 11.847 19.7039 11.9422 19.5068 11.9808C19.3096 12.0194 19.1053 11.9996 18.9196 11.9239C18.7339 11.8482 18.5752 11.72 18.4635 11.5556C18.3519 11.3911 18.2923 11.1978 18.2923 11C18.2923 10.7348 18.3993 10.4804 18.5899 10.2929C18.7805 10.1054 19.039 10 19.3085 10Z" fill="#376AED"/>
<path d="M26.4229 4H6.09793C5.55888 4 5.0419 4.21071 4.66074 4.58579C4.27957 4.96086 4.06543 5.46957 4.06543 6V26C4.06543 26.5304 4.27957 27.0391 4.66074 27.4142C5.0419 27.7893 5.55888 28 6.09793 28H26.4229C26.962 28 27.479 27.7893 27.8601 27.4142C28.2413 27.0391 28.4554 26.5304 28.4554 26V6C28.4554 5.46957 28.2413 4.96086 27.8601 4.58579C27.479 4.21071 26.962 4 26.4229 4ZM26.4229 26H6.09793V20L11.1792 15L16.86 20.59C17.2408 20.9625 17.756 21.1716 18.2929 21.1716C18.8299 21.1716 19.345 20.9625 19.7258 20.59L21.3417 19L26.4229 24V26ZM26.4229 21.17L22.7746 17.58C22.3938 17.2075 21.8786 16.9984 21.3417 16.9984C20.8047 16.9984 20.2896 17.2075 19.9088 17.58L18.2929 19.17L12.6121 13.58C12.2313 13.2075 11.7161 12.9984 11.1792 12.9984C10.6422 12.9984 10.1271 13.2075 9.74627 13.58L6.09793 17.17V6H26.4229V21.17Z" fill="#376AED"/>
</g>
<defs>
<clipPath id="clip0_113_13">
<rect width="32.52" height="32" fill="white"/>
</clipPath>
</defs>
</svg>
