<svg width="34" height="32" viewBox="0 0 34 32" fill="none" xmlns="http://www.w3.org/2000/svg">
<g clip-path="url(#clip0_113_17)">
<rect width="32.52" height="32" transform="translate(0.859375)" fill="white"/>
<path d="M30.585 6.75985C30.0185 6.20049 29.3454 5.75667 28.6042 5.45384C27.863 5.151 27.0684 4.99512 26.2659 4.99512C25.4634 4.99512 24.6688 5.151 23.9276 5.45384C23.1864 5.75667 22.5133 6.20049 21.9468 6.75985L23.3899 8.17985C23.7683 7.80755 24.2174 7.51223 24.7118 7.31074C25.2061 7.10926 25.7359 7.00555 26.271 7.00555C26.8061 7.00555 27.3359 7.10926 27.8302 7.31074C28.3245 7.51223 28.7737 7.80755 29.1521 8.17985C29.5304 8.55215 29.8305 8.99413 30.0353 9.48056C30.24 9.96699 30.3454 10.4883 30.3454 11.0148C30.3454 11.5414 30.24 12.0627 30.0353 12.5491C29.8305 13.0356 29.5304 13.4776 29.1521 13.8498L21.0221 21.8499C20.2593 22.6017 19.2242 23.0247 18.1446 23.0256C17.0649 23.0265 16.0291 22.6054 15.265 21.8548C14.5009 21.1043 14.0711 20.0858 14.0701 19.0234C14.0692 17.961 14.4972 16.9417 15.2599 16.1898L16.6928 14.7698L15.2599 13.3498L13.8168 14.7698C13.2484 15.3273 12.7974 15.9896 12.4896 16.7189C12.1819 17.4482 12.0234 18.2302 12.0234 19.0199C12.0234 19.8095 12.1819 20.5914 12.4896 21.3208C12.7974 22.0501 13.2484 22.7124 13.8168 23.2698C14.9667 24.3868 16.5201 25.0091 18.1359 24.9998C18.9415 25.0031 19.7398 24.8493 20.4846 24.5472C21.2294 24.2451 21.906 23.8007 22.4753 23.2399L30.6053 15.2398C31.7445 14.1122 32.3822 12.5857 32.3784 10.9957C32.3746 9.4057 31.7295 7.8822 30.585 6.75985Z" fill="#376AED"/>
<path d="M5.11778 24.8198C4.7383 24.4482 4.43718 24.0064 4.23171 23.5199C4.02625 23.0333 3.92047 22.5117 3.92047 21.9848C3.92047 21.458 4.02625 20.9363 4.23171 20.4498C4.43718 19.9633 4.7383 19.5215 5.11778 19.1498L13.2478 11.1498C13.6255 10.7764 14.0745 10.4801 14.5689 10.2779C15.0633 10.0757 15.5934 9.97166 16.1288 9.97166C16.6643 9.97166 17.1944 10.0757 17.6888 10.2779C18.1832 10.4801 18.6322 10.7764 19.0099 11.1498C19.387 11.5244 19.6838 11.9697 19.8828 12.4592C20.0818 12.9488 20.179 13.4727 20.1684 13.9998C20.1715 14.5286 20.0681 15.0528 19.864 15.542C19.6599 16.0312 19.3592 16.4757 18.9794 16.8498L16.825 18.9998L18.2681 20.4198L20.4225 18.2998C21.5693 17.1713 22.2136 15.6408 22.2136 14.0448C22.2136 12.4489 21.5693 10.9183 20.4225 9.78982C19.2757 8.66133 17.7202 8.02734 16.0984 8.02734C14.4765 8.02734 12.9211 8.66133 11.7742 9.78982L3.64422 17.7898C3.07424 18.3474 2.62191 19.0104 2.31326 19.7406C2.0046 20.4709 1.8457 21.2539 1.8457 22.0448C1.8457 22.8357 2.0046 23.6188 2.31326 24.349C2.62191 25.0792 3.07424 25.7422 3.64422 26.2998C4.80154 27.4083 6.35852 28.0197 7.97344 27.9998C9.60259 28.0014 11.1662 27.3687 12.323 26.2398L10.8799 24.8198C10.5022 25.1932 10.0532 25.4895 9.55882 25.6917C9.0644 25.8939 8.53426 25.998 7.99885 25.998C7.46343 25.998 6.93329 25.8939 6.43887 25.6917C5.94445 25.4895 5.49549 25.1932 5.11778 24.8198Z" fill="#376AED"/>
</g>
<defs>
<clipPath id="clip0_113_17">
<rect width="32.52" height="32" fill="white" transform="translate(0.859375)"/>
</clipPath>
</defs>
</svg>
