<svg width="224" height="36" viewBox="0 0 224 36" fill="none" xmlns="http://www.w3.org/2000/svg">
<path d="M29.8652 3.76685C29.5371 3.802 29.0684 3.86646 28.459 3.96021C27.8496 4.05396 27.2988 4.28247 26.8066 4.64575C26.373 4.96216 26.0625 5.50708 25.875 6.28052C25.6992 7.04224 25.6113 8.16724 25.6113 9.65552V27.4797H22.4824L6.94336 8.19653V19.9036C6.94336 21.3567 7.03711 22.4641 7.22461 23.2258C7.42383 23.9758 7.74023 24.5266 8.17383 24.8782C8.49023 25.136 8.99414 25.3645 9.68555 25.5637C10.377 25.7629 10.9277 25.8977 11.3379 25.968V27.3391H0.615234V25.968C1.07227 25.9329 1.59375 25.8508 2.17969 25.7219C2.77734 25.5813 3.27539 25.3704 3.67383 25.0891C4.13086 24.7493 4.44141 24.2395 4.60547 23.5598C4.78125 22.8684 4.86914 21.7141 4.86914 20.0969V8.28442C4.86914 7.69849 4.77539 7.14771 4.58789 6.63208C4.41211 6.10474 4.13086 5.65356 3.74414 5.27856C3.33398 4.88013 2.85938 4.56958 2.32031 4.34692C1.79297 4.11255 1.18945 3.93091 0.509766 3.802V2.39575H9.89648L23.5371 19.2708V9.8313C23.5371 8.3313 23.4375 7.21802 23.2383 6.49146C23.0391 5.75317 22.7227 5.20825 22.2891 4.85669C21.9492 4.58716 21.4453 4.35864 20.7773 4.17114C20.1094 3.97192 19.5703 3.83716 19.1602 3.76685V2.39575H29.8652V3.76685ZM50.1504 23.1379C49.7402 23.8059 49.2422 24.4387 48.6562 25.0364C48.082 25.6223 47.4258 26.1262 46.6875 26.5481C45.9023 26.9934 45.1055 27.3274 44.2969 27.55C43.5 27.7844 42.5801 27.9016 41.5371 27.9016C39.8027 27.9016 38.3027 27.6555 37.0371 27.1633C35.7832 26.6711 34.7461 26.009 33.9258 25.177C33.1055 24.345 32.4902 23.3665 32.0801 22.2415C31.6816 21.1047 31.4824 19.8743 31.4824 18.55C31.4824 17.3547 31.6992 16.2122 32.1328 15.1223C32.5781 14.0208 33.2051 13.0422 34.0137 12.1868C34.8105 11.3547 35.8125 10.6809 37.0195 10.1653C38.2383 9.64966 39.5977 9.39185 41.0977 9.39185C42.7383 9.39185 44.0859 9.59106 45.1406 9.9895C46.1953 10.3879 47.0684 10.9387 47.7598 11.6418C48.4277 12.3098 48.9141 13.1008 49.2188 14.0149C49.5234 14.9172 49.6758 15.8665 49.6758 16.8625V18.0051H37.793C37.793 20.4075 38.2559 22.2356 39.1816 23.4895C40.1074 24.7434 41.5781 25.3704 43.5938 25.3704C44.6953 25.3704 45.6855 25.0715 46.5645 24.4739C47.4434 23.8645 48.1934 23.0969 48.8145 22.1711L50.1504 23.1379ZM43.4355 16.4583C43.4355 15.7551 43.4004 15.0344 43.3301 14.2961C43.2598 13.5579 43.1367 12.9543 42.9609 12.4856C42.7617 11.9348 42.4863 11.5188 42.1348 11.2375C41.7949 10.9563 41.3613 10.8157 40.834 10.8157C39.9316 10.8157 39.2109 11.2727 38.6719 12.1868C38.1328 13.1008 37.8398 14.5481 37.793 16.5286L43.4355 16.4583ZM82.1602 11.1848C81.6211 11.2668 81.123 11.4485 80.666 11.7297C80.209 11.9993 79.8223 12.509 79.5059 13.259C78.6855 15.2629 78.0293 16.8801 77.5371 18.1106C77.0449 19.3411 76.3535 21.1165 75.4629 23.4368C75.2754 23.9172 75.0469 24.5793 74.7773 25.4231C74.5195 26.2668 74.3145 26.9583 74.1621 27.4973H70.7344L66.3047 15.5442L62.1562 27.4973H58.7637C57.5801 24.2981 56.6484 21.8196 55.9688 20.0618C55.2891 18.2922 54.3809 15.9602 53.2441 13.0657C53.0332 12.5149 52.6699 12.0813 52.1543 11.7649C51.6504 11.4485 51.1289 11.2551 50.5898 11.1848V9.90161H61.3828V11.1848C60.9844 11.22 60.5098 11.3137 59.959 11.4661C59.4082 11.6184 59.1328 11.8235 59.1328 12.0813C59.1328 12.1985 59.1445 12.304 59.168 12.3977C59.2031 12.4797 59.2559 12.6379 59.3262 12.8723C59.6426 13.7864 60.0762 14.97 60.627 16.4231C61.1777 17.8645 61.8223 19.5461 62.5605 21.468L66.4629 9.90161H69.9434L74.3906 21.8547C75.0703 20.05 75.5918 18.6321 75.9551 17.6008C76.3301 16.5579 76.7988 15.2161 77.3613 13.5754C77.4434 13.3293 77.4902 13.1125 77.502 12.925C77.5254 12.7258 77.5312 12.5969 77.5195 12.5383C77.5195 12.3274 77.4141 12.1399 77.2031 11.9758C76.9922 11.8 76.7402 11.6594 76.4473 11.554C76.1543 11.4485 75.8672 11.3665 75.5859 11.3079C75.3164 11.2493 75.0879 11.2083 74.9004 11.1848V9.90161H82.1602V11.1848ZM91.0723 27.9368C89.9355 27.9368 88.8223 27.7668 87.7324 27.427C86.6543 27.0989 85.8164 26.7473 85.2188 26.3723L84.6914 27.5676H83.3203L83.0918 21.011H84.375C84.5508 21.5383 84.8438 22.136 85.2539 22.804C85.6641 23.4602 86.1328 24.052 86.6602 24.5793C87.2109 25.1067 87.8379 25.552 88.541 25.9153C89.2559 26.2786 90.0176 26.4602 90.8262 26.4602C91.8926 26.4602 92.6836 26.2551 93.1992 25.845C93.7266 25.4231 93.9902 24.7786 93.9902 23.9114C93.9902 23.4426 93.873 23.0559 93.6387 22.7512C93.4043 22.4465 93.082 22.1829 92.6719 21.9602C92.2148 21.7258 91.7109 21.5266 91.1602 21.3625C90.6211 21.1985 89.9531 20.9993 89.1562 20.7649C88.3594 20.5305 87.6738 20.2961 87.0996 20.0618C86.5371 19.8157 85.9512 19.4348 85.3418 18.9192C84.8145 18.4622 84.3926 17.9114 84.0762 17.2668C83.7598 16.6223 83.6016 15.8547 83.6016 14.9641C83.6016 13.3118 84.293 11.9758 85.6758 10.9563C87.0703 9.93677 88.8926 9.427 91.1426 9.427C92.209 9.427 93.1875 9.53833 94.0781 9.76099C94.9805 9.97192 95.7363 10.2063 96.3457 10.4641L96.7148 9.427H98.0508L98.332 15.4211H97.084C96.6738 14.2024 95.9707 13.1536 94.9746 12.2747C93.9785 11.384 92.9062 10.9387 91.7578 10.9387C90.8555 10.9387 90.1465 11.1262 89.6309 11.5012C89.1152 11.8762 88.8574 12.3977 88.8574 13.0657C88.8574 13.9563 89.2324 14.6008 89.9824 14.9993C90.7441 15.3977 91.8047 15.7727 93.1641 16.1243C95.2617 16.6633 96.7969 17.4016 97.7695 18.3391C98.7422 19.2649 99.2285 20.4485 99.2285 21.8899C99.2285 23.8118 98.4727 25.3 96.9609 26.3547C95.4609 27.4094 93.498 27.9368 91.0723 27.9368ZM133.91 9.53247H132.557C132.193 8.46606 131.607 7.32349 130.799 6.10474C130.002 4.88599 129.264 4.22974 128.584 4.13599C128.209 4.08911 127.746 4.0481 127.195 4.01294C126.645 3.97778 126.17 3.96021 125.771 3.96021H124.945V23.5247C124.945 23.9465 125.021 24.3215 125.174 24.6497C125.326 24.9661 125.625 25.218 126.07 25.4055C126.34 25.511 126.756 25.6223 127.318 25.7395C127.893 25.845 128.379 25.9211 128.777 25.968V27.3391H114.873V25.968C115.213 25.9329 115.688 25.886 116.297 25.8274C116.918 25.7571 117.34 25.675 117.562 25.5813C118.02 25.3938 118.324 25.1418 118.477 24.8254C118.629 24.509 118.705 24.134 118.705 23.7004V3.96021H117.879C117.48 3.96021 117.006 3.97778 116.455 4.01294C115.904 4.0481 115.441 4.08911 115.066 4.13599C114.387 4.22974 113.643 4.88599 112.834 6.10474C112.037 7.32349 111.457 8.46606 111.094 9.53247H109.74V2.39575H133.91V9.53247ZM153.123 11.9758C153.99 12.7844 154.652 13.7512 155.109 14.8762C155.566 16.0012 155.795 17.22 155.795 18.5325C155.795 19.8333 155.566 21.0637 155.109 22.2239C154.664 23.3723 154.008 24.3567 153.141 25.177C152.215 26.0559 151.107 26.7297 149.818 27.1985C148.541 27.6672 147.076 27.9016 145.424 27.9016C143.994 27.9016 142.676 27.6965 141.469 27.2864C140.273 26.8762 139.213 26.261 138.287 25.4407C137.396 24.6555 136.693 23.6887 136.178 22.5403C135.662 21.3801 135.404 20.0852 135.404 18.6555C135.404 17.2493 135.627 16.0012 136.072 14.9114C136.529 13.8098 137.209 12.8313 138.111 11.9758C138.979 11.1555 140.045 10.5227 141.311 10.0774C142.588 9.62036 144.012 9.39185 145.582 9.39185C147.223 9.39185 148.664 9.62036 149.906 10.0774C151.16 10.5227 152.232 11.1555 153.123 11.9758ZM148.623 24.1575C148.881 23.5012 149.068 22.7043 149.186 21.7668C149.314 20.8293 149.379 19.7395 149.379 18.4973C149.379 17.677 149.32 16.7395 149.203 15.6848C149.086 14.6301 148.91 13.7981 148.676 13.1887C148.395 12.4504 148.002 11.8704 147.498 11.4485C147.006 11.0266 146.379 10.8157 145.617 10.8157C144.785 10.8157 144.117 11.0442 143.613 11.5012C143.121 11.9583 142.74 12.55 142.471 13.2766C142.225 13.9446 142.055 14.7297 141.961 15.6321C141.867 16.5227 141.82 17.4543 141.82 18.427C141.82 19.7043 141.861 20.7649 141.943 21.6086C142.025 22.4407 142.225 23.2786 142.541 24.1223C142.811 24.8489 143.197 25.4231 143.701 25.845C144.205 26.2668 144.844 26.4778 145.617 26.4778C146.32 26.4778 146.924 26.2844 147.428 25.8977C147.932 25.4993 148.33 24.9192 148.623 24.1575ZM180.791 26.97L172.125 27.4797L171.861 27.2336V25.6165L171.738 25.5813C171.164 26.2024 170.385 26.7473 169.4 27.2161C168.428 27.6731 167.443 27.9016 166.447 27.9016C164.08 27.9016 162.129 27.0227 160.594 25.2649C159.059 23.5071 158.291 21.2336 158.291 18.4446C158.291 15.9719 159.146 13.8508 160.857 12.0813C162.58 10.3118 164.66 9.427 167.098 9.427C168.059 9.427 168.961 9.53833 169.805 9.76099C170.648 9.97192 171.322 10.2239 171.826 10.5168V4.7688C171.826 4.33521 171.738 3.93091 171.562 3.55591C171.387 3.16919 171.152 2.87036 170.859 2.65942C170.496 2.40161 170.039 2.21997 169.488 2.1145C168.949 1.99731 168.404 1.91528 167.854 1.86841V0.585205L177.346 0.128174L177.609 0.409424V23.4543C177.609 23.8997 177.68 24.2747 177.82 24.5793C177.973 24.884 178.213 25.1243 178.541 25.3C178.787 25.429 179.145 25.5227 179.613 25.5813C180.094 25.6399 180.486 25.675 180.791 25.6868V26.97ZM171.826 23.8411V13.9094C171.744 13.6399 171.627 13.3411 171.475 13.0129C171.334 12.6848 171.135 12.3743 170.877 12.0813C170.643 11.8352 170.326 11.6184 169.928 11.4309C169.541 11.2434 169.102 11.1497 168.609 11.1497C167.438 11.1497 166.477 11.8118 165.727 13.136C164.977 14.4602 164.602 16.3293 164.602 18.7434C164.602 19.6926 164.666 20.5481 164.795 21.3098C164.936 22.0598 165.176 22.7454 165.516 23.3665C165.855 23.9875 166.289 24.4739 166.816 24.8254C167.355 25.177 168 25.3528 168.75 25.3528C169.465 25.3528 170.057 25.218 170.525 24.9485C170.994 24.6672 171.428 24.2981 171.826 23.8411ZM202.025 26.97C201.51 27.1926 200.9 27.3977 200.197 27.5852C199.494 27.7727 198.75 27.8665 197.965 27.8665C196.523 27.8665 195.463 27.6555 194.783 27.2336C194.104 26.8 193.641 26.1848 193.395 25.3879H193.289C192.891 25.7864 192.504 26.1262 192.129 26.4075C191.766 26.6887 191.373 26.929 190.951 27.1282C190.4 27.386 189.867 27.5735 189.352 27.6907C188.848 27.8196 188.139 27.884 187.225 27.884C185.865 27.884 184.705 27.4856 183.744 26.6887C182.783 25.8801 182.303 24.8137 182.303 23.4895C182.303 22.7278 182.408 22.0833 182.619 21.5559C182.83 21.0168 183.129 20.5422 183.516 20.1321C183.867 19.7571 184.271 19.4465 184.729 19.2004C185.197 18.9543 185.707 18.7258 186.258 18.5149C187.312 18.1282 188.578 17.7297 190.055 17.3196C191.531 16.8977 192.609 16.5227 193.289 16.1946V14.5071C193.289 14.2141 193.266 13.8274 193.219 13.3469C193.172 12.8665 193.072 12.4622 192.92 12.134C192.756 11.759 192.498 11.4426 192.146 11.1848C191.795 10.927 191.332 10.7981 190.758 10.7981C190.242 10.7981 189.809 10.8743 189.457 11.0266C189.117 11.1672 188.842 11.3137 188.631 11.4661C188.666 11.7004 188.766 12.0579 188.93 12.5383C189.094 13.0188 189.176 13.4817 189.176 13.927C189.176 14.1262 189.123 14.3782 189.018 14.6829C188.912 14.9758 188.76 15.2102 188.561 15.386C188.291 15.6204 187.986 15.802 187.646 15.9309C187.318 16.0598 186.809 16.1243 186.117 16.1243C185.133 16.1243 184.389 15.8899 183.885 15.4211C183.381 14.9407 183.129 14.3196 183.129 13.5579C183.129 12.9016 183.387 12.3157 183.902 11.8C184.43 11.2727 185.068 10.8391 185.818 10.4993C186.557 10.1477 187.406 9.87817 188.367 9.69067C189.328 9.49146 190.219 9.39185 191.039 9.39185C192.176 9.39185 193.219 9.46216 194.168 9.60278C195.117 9.73169 195.973 10.0071 196.734 10.429C197.461 10.8391 198.035 11.4368 198.457 12.2219C198.891 12.9954 199.107 14.009 199.107 15.2629C199.107 16.5872 199.078 18.1575 199.02 19.9739C198.973 21.7903 198.949 22.9856 198.949 23.5598C198.949 24.0872 199.025 24.5032 199.178 24.8079C199.342 25.1125 199.588 25.3411 199.916 25.4934C200.115 25.5872 200.426 25.6458 200.848 25.6692C201.281 25.6809 201.674 25.6868 202.025 25.6868V26.97ZM193.289 17.8118C192.633 18.0344 191.982 18.2922 191.338 18.5852C190.693 18.8665 190.166 19.1653 189.756 19.4817C189.322 19.8098 188.982 20.2317 188.736 20.7473C188.49 21.2512 188.367 21.8489 188.367 22.5403C188.367 23.4543 188.572 24.1165 188.982 24.5266C189.404 24.9368 189.92 25.1418 190.529 25.1418C191.174 25.1418 191.701 25.0129 192.111 24.7551C192.533 24.4856 192.902 24.1575 193.219 23.7708L193.289 17.8118ZM223.242 11.1848C222.715 11.2668 222.199 11.4661 221.695 11.7825C221.203 12.0989 220.793 12.5911 220.465 13.259C219.457 15.3918 218.42 17.6653 217.354 20.0793C216.287 22.4817 215.104 25.0833 213.803 27.884C213.076 29.4543 212.373 30.7083 211.693 31.6458C211.014 32.5833 210.375 33.304 209.777 33.8079C209.215 34.2766 208.658 34.6165 208.107 34.8274C207.557 35.0383 207 35.1438 206.438 35.1438C205.324 35.1438 204.422 34.8333 203.73 34.2122C203.051 33.5911 202.711 32.8938 202.711 32.1204C202.711 31.7922 202.746 31.4875 202.816 31.2063C202.898 30.925 203.062 30.6321 203.309 30.3274C203.496 30.0696 203.783 29.8469 204.17 29.6594C204.568 29.4836 205.014 29.3958 205.506 29.3958C206.162 29.3958 206.789 29.6243 207.387 30.0813C207.984 30.5383 208.605 31.1711 209.25 31.9797C209.637 31.593 210.111 31.0129 210.674 30.2395C211.248 29.4778 211.67 28.6926 211.939 27.884C210.545 24.9543 209.309 22.4172 208.23 20.2727C207.152 18.1165 205.945 15.7141 204.609 13.0657C204.316 12.5032 203.924 12.0696 203.432 11.7649C202.939 11.4485 202.418 11.2551 201.867 11.1848V9.90161H212.625V11.1848C212.227 11.1965 211.764 11.2844 211.236 11.4485C210.721 11.6125 210.463 11.8235 210.463 12.0813C210.463 12.175 210.48 12.2805 210.516 12.3977C210.551 12.5032 210.615 12.6614 210.709 12.8723C211.107 13.6926 211.67 14.8352 212.396 16.3C213.135 17.7532 213.99 19.4583 214.963 21.4153C215.689 19.7512 216.305 18.3215 216.809 17.1262C217.324 15.9192 217.822 14.7356 218.303 13.5754C218.42 13.2825 218.484 13.054 218.496 12.8899C218.52 12.7141 218.531 12.5969 218.531 12.5383C218.531 12.3274 218.426 12.1458 218.215 11.9934C218.016 11.8293 217.775 11.6887 217.494 11.5715C217.201 11.4543 216.92 11.3665 216.65 11.3079C216.381 11.2493 216.158 11.2083 215.982 11.1848V9.90161H223.242V11.1848Z" fill="#0D253C"/>
</svg>
