<svg width="29" height="29" viewBox="0 0 29 29" fill="none" xmlns="http://www.w3.org/2000/svg">
<path d="M5 15.1877V15.1875V10.4375C5 8.13604 5.98591 5.91617 7.76198 4.27006C9.53997 2.62217 11.9628 1.6875 14.5 1.6875C17.0372 1.6875 19.46 2.62217 21.238 4.27006C23.0141 5.91617 24 8.13604 24 10.4375V15.1875V15.1877C24.0001 15.7206 24.2291 16.219 24.6156 16.5771C24.6156 16.5772 24.6156 16.5772 24.6157 16.5772L27.7637 19.495C27.8147 19.5423 27.8438 19.6088 27.8438 19.6784V20.125C27.8438 20.2631 27.7318 20.375 27.5938 20.375H1.40625C1.26818 20.375 1.15625 20.2631 1.15625 20.125V19.6784C1.15625 19.6088 1.18526 19.5423 1.2363 19.495L4.38433 16.5772C4.38437 16.5772 4.3844 16.5772 4.38443 16.5771C4.77085 16.219 4.99988 15.7206 5 15.1877ZM17.5938 24.6875C17.5938 25.4142 17.2828 26.1239 16.7081 26.6565C16.1315 27.1909 15.3381 27.5 14.5 27.5C13.6619 27.5 12.8685 27.1909 12.2919 26.6565C11.7172 26.1239 11.4062 25.4142 11.4062 24.6875V24.25H17.5938V24.6875Z" stroke="#0D253C" stroke-width="1.5"/>
</svg>
