<svg width="34" height="32" viewBox="0 0 34 32" fill="none" xmlns="http://www.w3.org/2000/svg">
<g clip-path="url(#clip0_113_21)">
<rect width="32.52" height="32" transform="translate(0.620117)" fill="white"/>
<path d="M11.7985 23.0001C11.529 23.0001 11.2705 22.8948 11.0799 22.7072C10.8893 22.5197 10.7822 22.2653 10.7822 22.0001V10.0001C10.7822 9.82964 10.8265 9.66199 10.9108 9.51309C10.9952 9.36419 11.1168 9.23898 11.2642 9.14935C11.4116 9.05973 11.5798 9.00866 11.7528 9.00101C11.9259 8.99335 12.0981 9.02936 12.253 9.10562L24.448 15.1056C24.6169 15.1887 24.7589 15.3163 24.8581 15.4743C24.9574 15.6323 25.01 15.8144 25.01 16.0001C25.01 16.1859 24.9574 16.3679 24.8581 16.5259C24.7589 16.6839 24.6169 16.8116 24.448 16.8946L12.253 22.8946C12.1119 22.964 11.9563 23.0001 11.7985 23.0001ZM12.8147 11.618V20.3822L21.7213 16.0001L12.8147 11.618Z" fill="#376AED"/>
<path d="M16.8799 4C19.2918 4 21.6496 4.70379 23.655 6.02236C25.6605 7.34094 27.2235 9.21509 28.1466 11.4078C29.0696 13.6005 29.3111 16.0133 28.8405 18.3411C28.37 20.6689 27.2085 22.8071 25.503 24.4853C23.7975 26.1635 21.6246 27.3064 19.259 27.7694C16.8934 28.2324 14.4414 27.9948 12.213 27.0866C9.98468 26.1783 8.08008 24.6402 6.74008 22.6668C5.40007 20.6935 4.68485 18.3734 4.68485 16C4.68485 12.8174 5.96968 9.76515 8.25668 7.51472C10.5437 5.26428 13.6455 4 16.8799 4ZM16.8799 2C14.0659 2 11.3152 2.82109 8.97547 4.35943C6.63577 5.89777 4.8122 8.08427 3.73535 10.6424C2.65851 13.2006 2.37676 16.0155 2.92573 18.7313C3.4747 21.447 4.82974 23.9416 6.81949 25.8995C8.80924 27.8574 11.3443 29.1908 14.1042 29.731C16.8641 30.2712 19.7247 29.9939 22.3245 28.9343C24.9242 27.8747 27.1462 26.0803 28.7096 23.778C30.2729 21.4757 31.1073 18.7689 31.1073 16C31.1073 12.287 29.6084 8.72601 26.9402 6.1005C24.272 3.475 20.6532 2 16.8799 2Z" fill="#376AED"/>
</g>
<defs>
<clipPath id="clip0_113_21">
<rect width="32.52" height="32" fill="white" transform="translate(0.620117)"/>
</clipPath>
</defs>
</svg>
